<svg xmlns="http://www.w3.org/2000/svg" viewBox="0 0 500 500"><g id="freepik--background-complete--inject-2"><rect y="382.4" width="500" height="0.25" style="fill:#ebebeb"></rect><rect x="416.78" y="398.49" width="33.12" height="0.25" style="fill:#ebebeb"></rect><rect x="322.53" y="401.21" width="8.69" height="0.25" style="fill:#ebebeb"></rect><rect x="396.59" y="389.21" width="19.19" height="0.25" style="fill:#ebebeb"></rect><rect x="52.46" y="390.89" width="43.19" height="0.25" style="fill:#ebebeb"></rect><rect x="104.56" y="390.89" width="6.33" height="0.25" style="fill:#ebebeb"></rect><rect x="131.47" y="395.11" width="93.68" height="0.25" style="fill:#ebebeb"></rect><path d="M237,337.8H43.91a5.71,5.71,0,0,1-5.7-5.71V60.66A5.71,5.71,0,0,1,43.91,55H237a5.71,5.71,0,0,1,5.71,5.71V332.09A5.71,5.71,0,0,1,237,337.8ZM43.91,55.2a5.46,5.46,0,0,0-5.45,5.46V332.09a5.46,5.46,0,0,0,5.45,5.46H237a5.47,5.47,0,0,0,5.46-5.46V60.66A5.47,5.47,0,0,0,237,55.2Z" style="fill:#ebebeb"></path><path d="M453.31,337.8H260.21a5.72,5.72,0,0,1-5.71-5.71V60.66A5.72,5.72,0,0,1,260.21,55h193.1A5.71,5.71,0,0,1,459,60.66V332.09A5.71,5.71,0,0,1,453.31,337.8ZM260.21,55.2a5.47,5.47,0,0,0-5.46,5.46V332.09a5.47,5.47,0,0,0,5.46,5.46h193.1a5.47,5.47,0,0,0,5.46-5.46V60.66a5.47,5.47,0,0,0-5.46-5.46Z" style="fill:#ebebeb"></path><path d="M227.33,158.82v22.77l11.72,1.1a60.89,60.89,0,0,0,8.75,21l-7.53,9.1,16.09,16.1,9.1-7.54a60.7,60.7,0,0,0,21,8.75l1.1,11.72h22.77l1.11-11.72a61,61,0,0,0,21-8.75l9.09,7.54,16.1-16.1-7.53-9.1a60.68,60.68,0,0,0,8.74-21l11.73-1.1V158.82l-11.73-1.11a60.63,60.63,0,0,0-8.74-21l7.53-9.1-16.1-16.1L332.5,119a60.76,60.76,0,0,0-21-8.74l-1.11-11.73H287.59l-1.1,11.73a60.68,60.68,0,0,0-21,8.74l-9.1-7.53-16.09,16.1,7.53,9.09a61,61,0,0,0-8.75,21ZM299,139.38a30.82,30.82,0,1,1-30.82,30.82A30.82,30.82,0,0,1,299,139.38Z" style="fill:#e0e0e0"></path><path d="M188.86,260.7l6.54,5.41L207,254.54,201.56,248a43.82,43.82,0,0,0,6.28-15.11l8.42-.79V215.75l-8.42-.8a43.69,43.69,0,0,0-6.28-15.1l5.41-6.54L195.4,181.74l-6.54,5.41a43.66,43.66,0,0,0-15.11-6.28l-.79-8.42H156.6l-.79,8.42a43.82,43.82,0,0,0-15.11,6.28l-6.54-5.41L122.6,193.31l5.41,6.54a43.5,43.5,0,0,0-6.28,15.1l-8.43.8v16.36l8.43.79A43.63,43.63,0,0,0,128,248l-5.41,6.53,11.56,11.57,6.54-5.41A43.63,43.63,0,0,0,155.81,267l.79,8.43H173l.79-8.43A43.47,43.47,0,0,0,188.86,260.7Zm-46.22-36.77a22.15,22.15,0,1,1,22.14,22.14A22.15,22.15,0,0,1,142.64,223.93Z" style="fill:#e0e0e0"></path><path d="M261.57,371.51a52.44,52.44,0,0,0,18-7.48l7.78,6.44,13.77-13.77-6.44-7.78a52.07,52.07,0,0,0,7.47-18l10-.95V310.51l-10-.95a52.07,52.07,0,0,0-7.47-18l6.44-7.78L287.34,270l-7.78,6.44a52.44,52.44,0,0,0-18-7.48l-.95-10H241.15l-1,10a52.28,52.28,0,0,0-18,7.48L214.43,270l-13.77,13.77,6.44,7.78a52.09,52.09,0,0,0-7.48,18l-10,.95V330l10,.95a52.09,52.09,0,0,0,7.48,18l-6.44,7.78,13.77,13.77,7.78-6.44a52.28,52.28,0,0,0,18,7.48l1,10h19.47Zm-37-51.27a26.37,26.37,0,1,1,26.36,26.37A26.36,26.36,0,0,1,224.52,320.24Z" style="fill:#e0e0e0"></path><path d="M401.55,211.23h21.51a2.7,2.7,0,0,0,2.34-4l-10.76-18.63a2.69,2.69,0,0,0-4.67,0l-10.75,18.63A2.7,2.7,0,0,0,401.55,211.23Zm12.2-17.6-.47,9.28h-2l-.49-9.28Zm-3,12.47a1.51,1.51,0,0,1,1.57-1.52,1.53,1.53,0,0,1,1.6,1.52,1.54,1.54,0,0,1-1.6,1.55A1.53,1.53,0,0,1,410.72,206.1Z" style="fill:#f0f0f0"></path><path d="M87,127.23h21.5a2.7,2.7,0,0,0,2.34-4L100,104.55a2.7,2.7,0,0,0-4.68,0L84.61,123.18A2.7,2.7,0,0,0,87,127.23Zm12.2-17.59-.48,9.27h-2l-.5-9.27Zm-3,12.47a1.51,1.51,0,0,1,1.56-1.53,1.54,1.54,0,1,1,0,3.07A1.52,1.52,0,0,1,96.12,122.11Z" style="fill:#f0f0f0"></path><path d="M144.65,356.39h21.5a2.7,2.7,0,0,0,2.34-4.05l-10.75-18.63a2.7,2.7,0,0,0-4.68,0l-10.75,18.63A2.7,2.7,0,0,0,144.65,356.39Zm12.2-17.6-.48,9.28h-2l-.5-9.28Zm-3,12.47a1.51,1.51,0,0,1,1.57-1.52,1.54,1.54,0,0,1,1.61,1.52,1.55,1.55,0,0,1-1.61,1.55A1.53,1.53,0,0,1,153.81,351.26Z" style="fill:#f0f0f0"></path><path d="M346,329.44h21.51a2.7,2.7,0,0,0,2.33-4.05L359.1,306.76a2.7,2.7,0,0,0-4.68,0l-10.75,18.63A2.7,2.7,0,0,0,346,329.44Zm12.2-17.6-.48,9.28h-2l-.5-9.28Zm-3,12.47a1.5,1.5,0,0,1,1.56-1.52,1.54,1.54,0,0,1,1.61,1.52,1.55,1.55,0,0,1-1.61,1.55A1.52,1.52,0,0,1,355.18,324.31Z" style="fill:#f0f0f0"></path><path d="M361.47,93.79h11.91a1.5,1.5,0,0,0,1.3-2.24l-6-10.31a1.49,1.49,0,0,0-2.59,0l-5.95,10.31A1.49,1.49,0,0,0,361.47,93.79Zm6.76-9.74L368,89.19h-1.09l-.28-5.14ZM366.55,91a.84.84,0,0,1,.87-.85.85.85,0,1,1,0,1.7A.84.84,0,0,1,366.55,91Z" style="fill:#f0f0f0"></path><path d="M64.44,251.5H76.35a1.49,1.49,0,0,0,1.3-2.24l-6-10.31a1.48,1.48,0,0,0-2.58,0l-6,10.31A1.49,1.49,0,0,0,64.44,251.5Zm6.76-9.74-.26,5.14H69.85l-.27-5.14Zm-1.68,6.91a.84.84,0,0,1,.87-.85.85.85,0,1,1,0,1.7A.84.84,0,0,1,69.52,248.67Z" style="fill:#f0f0f0"></path><path d="M292.48,175.29h11.91a1.5,1.5,0,0,0,1.29-2.25l-5.95-10.31a1.49,1.49,0,0,0-2.59,0l-6,10.31A1.5,1.5,0,0,0,292.48,175.29Zm6.75-9.75-.26,5.14h-1.09l-.27-5.14Zm-1.67,6.91a.84.84,0,0,1,.86-.85.86.86,0,1,1-.86.85Z" style="fill:#f0f0f0"></path><rect x="164.11" y="88.33" width="30.94" height="20.45" style="fill:#e0e0e0"></rect><rect x="164.11" y="88.33" width="31" height="3.36" style="fill:#f0f0f0"></rect><rect x="96.5" y="164.16" width="30.94" height="20.45" style="fill:#e0e0e0"></rect><rect x="96.5" y="164.16" width="31" height="3.36" style="fill:#f0f0f0"></rect><rect x="92.22" y="309.72" width="30.94" height="20.45" style="fill:#e0e0e0"></rect><rect x="92.22" y="309.72" width="31" height="3.36" style="fill:#f0f0f0"></rect><rect x="330.44" y="257.02" width="30.94" height="20.45" style="fill:#e0e0e0"></rect><rect x="330.44" y="257.02" width="31" height="3.36" style="fill:#f0f0f0"></rect><rect x="398.25" y="283.55" width="30.94" height="20.45" style="fill:#e0e0e0"></rect><rect x="398.25" y="283.55" width="31" height="3.36" style="fill:#f0f0f0"></rect><rect x="386.87" y="130.76" width="30.94" height="20.45" style="fill:#e0e0e0"></rect><rect x="386.87" y="130.76" width="31" height="3.36" style="fill:#f0f0f0"></rect></g><g id="freepik--Shadow--inject-2"><ellipse id="freepik--path--inject-2" cx="250" cy="416.24" rx="193.89" ry="11.32" style="fill:#f5f5f5"></ellipse></g><g id="freepik--speech-bubble--inject-2"><path d="M213.48,119.42H184.76a8.85,8.85,0,0,0-8.85,8.85v25a8.84,8.84,0,0,0,8.85,8.84h5.38l-2,7.9,8-7.9h17.4a8.84,8.84,0,0,0,8.84-8.84v-25A8.85,8.85,0,0,0,213.48,119.42Z" style="fill:#831C30"></path><path d="M213.48,119.42H184.76a8.85,8.85,0,0,0-8.85,8.85v25a8.84,8.84,0,0,0,8.85,8.84h5.38l-2,7.9,8-7.9h17.4a8.84,8.84,0,0,0,8.84-8.84v-25A8.85,8.85,0,0,0,213.48,119.42Z" style="fill:#fff;opacity:0.7000000000000001"></path><path d="M199.12,155.79a14.8,14.8,0,1,1,14.8-14.8A14.82,14.82,0,0,1,199.12,155.79Zm0-27.6a12.8,12.8,0,1,0,12.8,12.8A12.81,12.81,0,0,0,199.12,128.19Z" style="fill:#831C30"></path><path d="M196.85,146.71h0a1,1,0,0,1-.73-.32l-4.36-4.72a1,1,0,0,1,.06-1.42,1,1,0,0,1,1.41.06l3.63,3.94L205,135.6a1,1,0,0,1,1.41,0,1,1,0,0,1,0,1.42l-8.89,9.42A1,1,0,0,1,196.85,146.71Z" style="fill:#831C30"></path></g><g id="freepik--Device--inject-2"><path d="M269.71,413.46v3a.68.68,0,0,0,.68.68h85.15a4.44,4.44,0,0,0,4.11-6.1l-27-66.82-43.6.3,1.49,8.67,9.62,56.12a3,3,0,0,1-2.92,3.47H270.39A.67.67,0,0,0,269.71,413.46Z" style="fill:#831C30"></path><path d="M269.71,413.46v3a.68.68,0,0,0,.68.68h85.15a4.44,4.44,0,0,0,4.11-6.1l-16.72-41.42-10.26-25.4-43.6.3,1.49,8.67,4.18,24.4,5.44,31.72a3,3,0,0,1-2.92,3.47H270.39A.67.67,0,0,0,269.71,413.46Z" style="fill:#fff;opacity:0.6000000000000001"></path><path d="M297.26,412.79h55.39a2,2,0,0,0,1.8-2.69l-23.66-56.9H290.56l9.62,56.12A3,3,0,0,1,297.26,412.79Z" style="isolation:isolate;opacity:0.2"></path><polygon points="289.07 344.53 290.56 353.2 294.74 377.6 342.93 369.63 332.67 344.23 289.07 344.53" style="isolation:isolate;opacity:0.1"></polygon><path d="M204.29,220H406.15a5.16,5.16,0,0,1,5.16,5.17V361.78a5.17,5.17,0,0,1-5.16,5.17H204.29a5.17,5.17,0,0,1-5.17-5.17V225.13A5.16,5.16,0,0,1,204.29,220Z" style="fill:#831C30"></path><path d="M204.29,220H406.15a5.16,5.16,0,0,1,5.16,5.17V361.78a5.17,5.17,0,0,1-5.16,5.17H204.29a5.17,5.17,0,0,1-5.17-5.17V225.13A5.16,5.16,0,0,1,204.29,220Z" style="fill:#fff;opacity:0.7000000000000001"></path><path d="M401.87,366.94h4.28a5.16,5.16,0,0,0,5.16-5.16V225.13a5.16,5.16,0,0,0-5.16-5.17h-4.28a5.16,5.16,0,0,1,5.16,5.17V361.78A5.16,5.16,0,0,1,401.87,366.94Z" style="isolation:isolate;opacity:0.2"></path><rect x="203.77" y="225.02" width="198.6" height="131.77" style="fill:#263238"></rect><rect x="203.77" y="225.02" width="198.6" height="10.11" style="fill:#831C30"></rect><path d="M397.73,230.44a2.47,2.47,0,1,1-2.47-2.47A2.48,2.48,0,0,1,397.73,230.44Z" style="opacity:0.2"></path><path d="M389.57,230.44A2.47,2.47,0,1,1,387.1,228,2.47,2.47,0,0,1,389.57,230.44Z" style="opacity:0.2"></path><path d="M381.42,230.44A2.47,2.47,0,1,1,379,228,2.48,2.48,0,0,1,381.42,230.44Z" style="opacity:0.2"></path><rect x="203.77" y="235.18" width="198.6" height="34.21" style="fill:#fff;opacity:0.4"></rect><polygon points="208.32 236.7 203.77 244.85 203.77 236.7 208.32 236.7" style="fill:#263238"></polygon><polygon points="232.85 236.7 215.42 267.98 203.77 267.98 203.77 264.15 219.07 236.7 232.85 236.7" style="fill:#263238"></polygon><polygon points="239.88 268.11 226.1 268.11 243.61 236.69 257.38 236.69 239.88 268.11" style="fill:#263238"></polygon><polygon points="264.41 268.11 250.63 268.11 268.14 236.69 281.92 236.69 264.41 268.11" style="fill:#263238"></polygon><polygon points="288.94 268.11 275.16 268.11 292.67 236.69 306.45 236.69 288.94 268.11" style="fill:#263238"></polygon><polygon points="313.47 268.11 299.7 268.11 317.2 236.69 330.98 236.69 313.47 268.11" style="fill:#263238"></polygon><polygon points="338.01 267.88 324.23 267.88 341.74 236.46 355.51 236.46 338.01 267.88" style="fill:#263238"></polygon><polygon points="362.54 267.88 348.76 267.88 366.27 236.46 380.05 236.46 362.54 267.88" style="fill:#263238"></polygon><polygon points="402.37 236.59 402.37 240.43 387.07 267.88 373.29 267.88 390.73 236.59 402.37 236.59" style="fill:#263238"></polygon><polygon points="402.37 259.96 402.37 267.98 397.9 267.98 402.37 259.96" style="fill:#263238"></polygon><rect x="203.77" y="322.45" width="198.6" height="34.21" style="fill:#fff;opacity:0.4"></rect><polygon points="208.32 324.25 203.77 332.33 203.77 324.25 208.32 324.25" style="fill:#263238"></polygon><polygon points="232.85 324.25 215.42 355.27 203.77 355.27 203.77 351.47 219.07 324.25 232.85 324.25" style="fill:#263238"></polygon><polygon points="239.88 355.4 226.1 355.4 243.61 324.25 257.38 324.25 239.88 355.4" style="fill:#263238"></polygon><polygon points="264.41 355.4 250.63 355.4 268.14 324.25 281.92 324.25 264.41 355.4" style="fill:#263238"></polygon><polygon points="288.94 355.4 275.16 355.4 292.67 324.25 306.45 324.25 288.94 355.4" style="fill:#263238"></polygon><polygon points="313.47 355.4 299.7 355.4 317.2 324.25 330.98 324.25 313.47 355.4" style="fill:#263238"></polygon><polygon points="338.01 355.17 324.23 355.17 341.74 324.02 355.51 324.02 338.01 355.17" style="fill:#263238"></polygon><polygon points="362.54 355.17 348.76 355.17 366.27 324.02 380.05 324.02 362.54 355.17" style="fill:#263238"></polygon><polygon points="402.37 324.14 402.37 327.94 387.07 355.16 373.29 355.16 390.73 324.14 402.37 324.14" style="fill:#263238"></polygon><polygon points="402.37 347.31 402.37 355.27 397.9 355.27 402.37 347.31" style="fill:#263238"></polygon><path d="M270.17,301v2.85h-13.7V285.58h13.34v2.84h-9.94v4.75h8.82V296h-8.82v5Z" style="fill:#fff"></path><path d="M285.91,303.85l-3.73-5.35c-.24,0-.47,0-.71,0h-4.12v5.33H274V285.58h7.52c4.8,0,7.78,2.45,7.78,6.5a5.85,5.85,0,0,1-3.89,5.77l4.2,6Zm-4.6-15.4h-4v7.28h4c3,0,4.52-1.36,4.52-3.65S284.29,288.45,281.31,288.45Z" style="fill:#fff"></path><path d="M305,303.85l-3.73-5.35c-.24,0-.47,0-.71,0h-4.12v5.33H293V285.58h7.51c4.81,0,7.78,2.45,7.78,6.5a5.85,5.85,0,0,1-3.89,5.77l4.2,6Zm-4.59-15.4h-4v7.28h4c3,0,4.51-1.36,4.51-3.65S303.36,288.45,300.39,288.45Z" style="fill:#fff"></path><path d="M310.79,294.71c0-5.4,4.18-9.39,9.84-9.39s9.84,4,9.84,9.39-4.17,9.4-9.84,9.4S310.79,300.12,310.79,294.71Zm16.26,0a6.42,6.42,0,1,0-6.42,6.42A6.23,6.23,0,0,0,327.05,294.71Z" style="fill:#fff"></path><path d="M346,303.85l-3.73-5.35c-.24,0-.47,0-.7,0h-4.13v5.33h-3.39V285.58h7.52c4.8,0,7.77,2.45,7.77,6.5a5.85,5.85,0,0,1-3.89,5.77l4.21,6Zm-4.59-15.4h-4v7.28h4c3,0,4.51-1.36,4.51-3.65S344.4,288.45,341.43,288.45Z" style="fill:#fff"></path><path d="M365.61,306.73h21.51a2.7,2.7,0,0,0,2.34-4.05L378.7,284.05a2.69,2.69,0,0,0-4.67,0l-10.76,18.63A2.7,2.7,0,0,0,365.61,306.73Zm12.2-17.6-.47,9.28h-2l-.49-9.28Zm-3,12.47a1.5,1.5,0,0,1,1.56-1.52A1.53,1.53,0,0,1,378,301.6a1.55,1.55,0,0,1-1.61,1.55A1.52,1.52,0,0,1,374.78,301.6Z" style="fill:#fff;opacity:0.4"></path><path d="M219,306.73h21.51a2.7,2.7,0,0,0,2.33-4.05l-10.75-18.63a2.69,2.69,0,0,0-4.67,0l-10.76,18.63A2.7,2.7,0,0,0,219,306.73Zm12.2-17.6-.48,9.28h-2l-.49-9.28Zm-3,12.47a1.5,1.5,0,0,1,1.56-1.52,1.53,1.53,0,0,1,1.61,1.52,1.55,1.55,0,0,1-1.61,1.55A1.52,1.52,0,0,1,228.2,301.6Z" style="fill:#fff;opacity:0.4"></path><path d="M224.47,225c27.46,27.51,98,88.73,177.9,84.21V225Z" style="fill:#fff;opacity:0.1"></path><path d="M203.77,275.58V356.8H323.34c-4.59-16.41-13.75-38.87-31.53-54.92C259.82,273,222.7,273.08,203.77,275.58Z" style="fill:#fff;opacity:0.1"></path></g><g id="freepik--tool-box--inject-2"><path d="M374,411l3.56,1.56a5.43,5.43,0,0,1-5.7,1.19,5,5,0,0,1-2.73-6,4.34,4.34,0,0,1,1.3-2.11l-9.68-24.73c-3.48.14-4.95-3.12-4.87-5.36l3.54,1.57a1.64,1.64,0,1,0,1.3-3l-3.56-1.56a5.42,5.42,0,0,1,5.7-1.19,5.06,5.06,0,0,1,2.87,5.95,3.88,3.88,0,0,1-1.16,2.05l9.68,24.74c2.71.15,4.81,3.17,4.73,5.41L375.37,408a1.68,1.68,0,0,0-2.2.86A1.65,1.65,0,0,0,374,411Z" style="fill:#831C30"></path><path d="M374,411l3.56,1.56a5.43,5.43,0,0,1-5.7,1.19,5,5,0,0,1-2.73-6,4.34,4.34,0,0,1,1.3-2.11l-9.68-24.73c-3.48.14-4.95-3.12-4.87-5.36l3.54,1.57a1.64,1.64,0,1,0,1.3-3l-3.56-1.56a5.42,5.42,0,0,1,5.7-1.19,5.06,5.06,0,0,1,2.87,5.95,3.88,3.88,0,0,1-1.16,2.05l9.68,24.74c2.71.15,4.81,3.17,4.73,5.41L375.37,408a1.68,1.68,0,0,0-2.2.86A1.65,1.65,0,0,0,374,411Z" style="fill:#fff;opacity:0.2"></path><path d="M346.39,389.14l-3.77.94a5.4,5.4,0,0,1,3.79-4.42,5,5,0,0,1,5.83,3.09,4.32,4.32,0,0,1,.25,2.47l22.76,13.69c2.67-2.24,5.82-.55,7.13,1.27l-3.76.92a1.63,1.63,0,0,0-1.2,2,1.65,1.65,0,0,0,2,1.19l3.78-.94a5.4,5.4,0,0,1-3.79,4.42,5.06,5.06,0,0,1-5.91-3,4,4,0,0,1-.34-2.33l-22.75-13.7c-2.25,1.54-5.75.43-7.05-1.4l3.8-1a1.69,1.69,0,0,0,1.22-2A1.65,1.65,0,0,0,346.39,389.14Z" style="fill:#831C30"></path><path d="M346.39,389.14l-3.77.94a5.4,5.4,0,0,1,3.79-4.42,5,5,0,0,1,5.83,3.09,4.32,4.32,0,0,1,.25,2.47l22.76,13.69c2.67-2.24,5.82-.55,7.13,1.27l-3.76.92a1.63,1.63,0,0,0-1.2,2,1.65,1.65,0,0,0,2,1.19l3.78-.94a5.4,5.4,0,0,1-3.79,4.42,5.06,5.06,0,0,1-5.91-3,4,4,0,0,1-.34-2.33l-22.75-13.7c-2.25,1.54-5.75.43-7.05-1.4l3.8-1a1.69,1.69,0,0,0,1.22-2A1.65,1.65,0,0,0,346.39,389.14Z" style="fill:#fff;opacity:0.2"></path><polygon points="422.89 377.76 422.89 377.76 422.95 377.6 387.78 377.6 379.53 399.39 414.55 399.39 414.53 399.45 417.42 399.45 424.84 380.02 422.89 377.76" style="fill:#263238"></polygon><polygon points="422.89 377.76 422.89 377.76 422.95 377.6 387.78 377.6 379.53 399.39 414.55 399.39 414.53 399.45 417.42 399.45 424.84 380.02 422.89 377.76" style="fill:#fff;opacity:0.2"></polygon><polygon points="422.95 377.6 414.7 399.39 379.53 399.39 387.78 377.6 422.95 377.6" style="isolation:isolate;opacity:0.4"></polygon><polygon points="361.9 392.85 370.04 403.31 372.96 402.87 364.37 392.85 361.9 392.85" style="fill:#263238"></polygon><polygon points="361.9 392.85 370.04 403.31 372.96 402.87 364.37 392.85 361.9 392.85" style="fill:#fff;opacity:0.1"></polygon><polygon points="364.37 382.96 372.51 393.42 375.43 392.98 366.84 382.96 364.37 382.96" style="fill:#263238"></polygon><polygon points="364.37 382.96 372.51 393.42 375.43 392.98 366.84 382.96 364.37 382.96" style="fill:#fff;opacity:0.1"></polygon><rect x="353.88" y="399.39" width="60.82" height="17.76" transform="translate(768.58 816.54) rotate(180)" style="fill:#263238"></rect><rect x="353.88" y="399.39" width="60.82" height="17.76" transform="translate(768.58 816.54) rotate(180)" style="fill:#fff;opacity:0.2"></rect><rect x="360.48" y="391.14" width="55.87" height="2.81" transform="translate(776.83 785.1) rotate(180)" style="fill:#263238"></rect><rect x="360.48" y="391.14" width="55.87" height="2.81" transform="translate(776.83 785.1) rotate(180)" style="fill:#fff;opacity:0.2"></rect><rect x="394.9" y="391.14" width="21.45" height="2.81" transform="translate(811.25 785.1) rotate(180)" style="isolation:isolate;opacity:0.2"></rect><rect x="363.77" y="382.9" width="55.87" height="2.81" transform="translate(783.42 768.6) rotate(180)" style="fill:#263238"></rect><rect x="363.77" y="382.9" width="55.87" height="2.81" transform="translate(783.42 768.6) rotate(180)" style="fill:#fff;opacity:0.2"></rect><rect x="398.2" y="382.9" width="21.45" height="2.81" transform="translate(817.85 768.6) rotate(180)" style="isolation:isolate;opacity:0.2"></rect><rect x="390.78" y="399.39" width="23.92" height="17.76" transform="translate(805.48 816.54) rotate(180)" style="isolation:isolate;opacity:0.2"></rect></g></svg>
